C:\Users\febre\Documents\GitHub\PredSim_repo_results\PredSim\Examples\ExampleResults\Synergies\gait1018_v2.mot
version=1
nRows=16
nColumns=29
inDegrees=yes
endheader
                time	         pelvis_tilt	           pelvis_tx	           pelvis_ty	       hip_flexion_l	       hip_flexion_r	        knee_angle_l	        knee_angle_r	       ankle_angle_l	       ankle_angle_r	    lumbar_extension	hamstrings_r/activation	bifemsh_r/activation	glut_max_r/activation	iliopsoas_r/activation	rect_fem_r/activation	  vasti_r/activation	gastroc_r/activation	 soleus_r/activation	tib_ant_r/activation	hamstrings_l/activation	bifemsh_l/activation	glut_max_l/activation	iliopsoas_l/activation	rect_fem_l/activation	  vasti_l/activation	gastroc_l/activation	 soleus_l/activation	tib_ant_l/activation	
          0.00000000	         -7.79592259	          0.00000000	          0.89115891	         -9.17382322	         30.43770086	        -13.20118887	         -7.97002972	          4.16563121	          7.66034408	          1.56932138	          0.19333156	          0.05000001	          0.04999999	          0.05000000	          0.06877542	          0.07088276	          0.05235458	          0.05000000	          0.21888918	          0.05000000	          0.11521484	          0.04999999	          0.46963409	          0.05853231	          0.04999999	          0.23093245	          0.29057520	          0.04999999	
          0.01036927	         -7.81064588	          0.01650657	          0.89065967	         -8.49932402	         29.46627887	        -16.15179417	         -7.76865277	          2.78043179	          7.35757743	          1.99785647	          0.16484318	          0.05000003	          0.07195220	          0.05000000	          0.05864103	          0.08433178	          0.06286901	          0.05864112	          0.21495756	          0.04999999	          0.09823736	          0.05403520	          0.40047262	          0.05000003	          0.04999999	          0.19690339	          0.24775748	          0.04999999	
          0.02073853	         -7.81942430	          0.03308256	          0.89016508	         -7.57678524	         28.46776674	        -19.47576522	         -7.89728132	          0.99572030	          7.00446464	          2.43040642	          0.14356545	          0.06877542	          0.10986654	          0.04999999	          0.04999999	          0.10339963	          0.05360495	          0.05000006	          0.25499463	          0.05000000	          0.08376159	          0.08066129	          0.34146096	          0.05000000	          0.04999999	          0.16788868	          0.21124916	          0.04999999	
          0.03110780	         -7.82870287	          0.04935127	          0.88994742	         -6.39326678	         27.52932276	        -23.10177483	         -8.08782266	         -1.23744411	          6.59158382	          2.82666504	          0.12241036	          0.05864104	          0.18529013	          0.04999999	          0.04999999	          0.17392930	          0.04999999	          0.04999999	          0.29304222	          0.05000001	          0.07141890	          0.06877545	          0.29114497	          0.05000000	          0.05000004	          0.14314944	          0.18012053	          0.26464750	
          0.04147707	         -7.84335043	          0.06494524	          0.89010540	         -4.99869476	         26.72400329	        -26.89433174	         -8.41774038	         -3.10258903	          6.17476473	          3.14579192	          0.10437258	          0.05000000	          0.19594147	          0.04999999	          0.05000000	          0.23388015	          0.05000000	          0.04999999	          0.31183482	          0.05000000	          0.06089497	          0.05864104	          0.24824329	          0.09069472	          0.04999999	          0.12205565	          0.15357886	          0.22565036	
          0.05184633	         -7.86532968	          0.07977905	          0.89072968	         -3.52044721	         26.02446969	        -30.49573766	         -8.84784436	         -3.49315255	          5.90493894	          3.38008098	          0.09207915	          0.05000003	          0.18975294	          0.04999999	          0.05000000	          0.26215361	          0.05000000	          0.05000000	          0.31408621	          0.05000000	          0.07295082	          0.04999999	          0.21166339	          0.15212241	          0.04999999	          0.10407013	          0.13094824	          0.26898776	
          0.06221560	         -7.89286071	          0.09397977	          0.89192151	         -2.03011601	         25.35398351	        -33.69153954	         -9.25714212	         -3.32267594	          5.76670247	          3.54488131	          0.08361302	          0.05000003	          0.17892722	          0.04999999	          0.05000000	          0.26748314	          0.05000000	          0.05000000	          0.30600675	          0.05000262	          0.12015448	          0.04999999	          0.18047372	          0.21112273	          0.04999999	          0.08873487	          0.11165236	          0.27648268	
          0.07258486	         -7.92414302	          0.10770176	          0.89361991	         -0.57202952	         24.65060280	        -36.38841162	         -9.55401537	         -2.94761794	          5.74319355	          3.65837986	          0.08014027	          0.05000005	          0.16348109	          0.04999999	          0.05000000	          0.25541882	          0.05000000	          0.05000003	          0.29223574	          0.06499316	          0.16076588	          0.04999999	          0.15693028	          0.25687822	          0.04999999	          0.07565952	          0.09519982	          0.26052727	
          0.08295413	         -7.95687660	          0.12106887	          0.89569418	          0.83401817	         23.88354484	        -38.58033764	         -9.69738355	         -2.42716050	          5.78970419	          3.73371454	          0.08053060	          0.05000006	          0.14903151	          0.04999999	          0.05000000	          0.23625946	          0.05000002	          0.05163450	          0.27710774	          0.07796160	          0.20877298	          0.04999999	          0.14205713	          0.28621466	          0.04999999	          0.07133944	          0.08117165	          0.24494371	
          0.09332340	         -7.98904421	          0.13416100	          0.89800209	          2.19138454	         23.04809242	        -40.31882773	         -9.68719410	         -1.80939339	          5.85967999	          3.77844181	          0.08155509	          0.05000005	          0.13818822	          0.04999999	          0.05000000	          0.21527149	          0.05214217	          0.05405888	          0.26481022	          0.08066129	          0.25944374	          0.04999999	          0.13213255	          0.30178578	          0.04999999	          0.06248257	          0.06921060	          0.22572206	
          0.10369266	         -8.01904901	          0.14702555	          0.90041337	          3.51504790	         22.15258178	        -41.68015817	         -9.54344672	         -1.11663468	          5.91808901	          3.79632913	          0.08299487	          0.05000003	          0.13250106	          0.04999999	          0.05000000	          0.19616915	          0.05737838	          0.05660176	          0.25678737	          0.06877551	          0.31296716	          0.04999999	          0.12431185	          0.30521052	          0.04999999	          0.05516532	          0.05901207	          0.20573777	
          0.11406193	         -8.04558289	          0.15969153	          0.90281960	          4.82280400	         21.20906618	        -42.73919755	         -9.29225777	         -0.39449691	          5.94955886	          3.78912772	          0.08283832	          0.05000002	          0.12797016	          0.04999999	          0.05000000	          0.18060052	          0.06442373	          0.05959161	          0.25284786	          0.05864111	          0.36741701	          0.04999999	          0.11930658	          0.30046365	          0.04999999	          0.05380046	          0.05031634	          0.18919126	
          0.12443120	         -8.06719562	          0.17217448	          0.90513431	          6.13480986	         20.22975489	        -43.57365043	         -8.96038204	          0.29910801	          5.95530731	          3.75671679	          0.08114396	          0.05000002	          0.12386237	          0.04999999	          0.05000000	          0.16937888	          0.07318990	          0.06313399	          0.25195643	          0.05000006	          0.42008640	          0.04999999	          0.11574455	          0.28996898	          0.04999999	          0.05000000	          0.04999999	          0.18474666	
          0.13480046	         -8.08257965	          0.18448210	          0.90729142	          7.47113339	         19.22484931	        -44.26133848	         -8.57057785	          0.92901257	          5.94557751	          3.69819893	          0.07745901	          0.05000001	          0.11634613	          0.04999999	          0.05000000	          0.16183602	          0.08348276	          0.06762337	          0.25230758	          0.05000000	          0.46635882	          0.04999999	          0.11435815	          0.27669483	          0.04999999	          0.05000000	          0.04999999	          0.18331893	
          0.14516973	         -8.09075020	          0.19661715	          0.90924345	          8.84978352	         18.20320567	        -44.87796496	         -8.14217745	          1.51693879	          5.93301921	          3.61249369	          0.07278428	          0.05000001	          0.10900663	          0.04999999	          0.05000000	          0.15690487	          0.09504185	          0.07312592	          0.25253361	          0.05000000	          0.50185595	          0.04999999	          0.11343475	          0.26217044	          0.04999999	          0.05000000	          0.04999999	          0.18386259	
          0.15553900	         -8.09113980	          0.20858357	          0.91096298	         10.28326198	         17.17012823	        -45.48269373	         -7.68723260	          2.08464620	          5.92853833	          3.49922308	          0.06747012	          0.05000001	          0.10159505	          0.04999999	          0.05000001	          0.15317172	          0.10761607	          0.07953461	          0.25183846	          0.05000000	          0.52408809	          0.04999999	          0.11289301	          0.24790544	          0.04999999	          0.05000000	          0.04999999	          0.18526046	
